<svg id="Layer_1" data-name="Layer 1" xmlns="http://www.w3.org/2000/svg" width="2150" height="302" viewBox="0 0 2150 302"><defs><style>.cls-1{fill:#fff;}</style></defs><g id="Group_889" data-name="Group 889"><path id="Subtraction_47" data-name="Subtraction 47" class="cls-1" d="M151.11,298.33a147.33,147.33,0,1,1,0-294.66V74.5h0a76.55,76.55,0,1,0,76.5,76.59V151h70.84a147.21,147.21,0,0,1-147.1,147.33Z"/><circle id="Ellipse_690" data-name="Ellipse 690" class="cls-1" cx="248.86" cy="53.25" r="49.58"/></g><path class="cls-1" d="M392.45,265.2v-233h42.64v198H543.84v35Z"/><path class="cls-1" d="M939.16,103.56h40.33L916,265.2H880L840.33,161.08,801.66,265.2H766l-63.8-161.64h42.31L785.79,216l41.32-112.39h29.75l41.32,113.05Z"/><path class="cls-1" d="M1234.77,257.6a70.83,70.83,0,0,1-28.92-29.42q-10.26-19.17-10.25-44.63t10.25-44.45a71,71,0,0,1,28.92-29.26q18.68-10.25,43.47-10.24t43.46,10.24a70.07,70.07,0,0,1,28.76,29.26q10.08,19,10.08,44.45t-10.08,44.63a69.88,69.88,0,0,1-28.76,29.42q-18.67,10.25-43.46,10.24T1234.77,257.6Zm73.88-35q10.57-13.22,10.57-39,0-25.44-10.57-38.84t-30.41-13.38q-19.83,0-30.58,13.38t-10.74,38.84q0,25.78,10.58,39t30.41,13.22Q1298.05,235.78,1308.65,222.56Z"/><path class="cls-1" d="M1515.24,116.12q14.21,16.53,14.21,49.92V265.2h-41.32V168.35q0-18.84-7.1-27.44t-22.32-8.59q-17.85,0-28.59,11.24t-10.74,30.08V265.2h-41.32V103.56h40.33v24.13a55.89,55.89,0,0,1,22.14-20.82q13.89-7.28,31.41-7.27Q1501,99.6,1515.24,116.12Z"/><path class="cls-1" d="M1690.42,116.12q14.2,16.53,14.22,49.92V265.2h-41.32V168.35q0-18.84-7.11-27.44t-22.31-8.59q-17.85,0-28.59,11.24t-10.74,30.08V265.2h-41.32V103.56h40.32v24.13a55.92,55.92,0,0,1,22.15-20.82q13.89-7.28,31.4-7.27Q1676.21,99.6,1690.42,116.12Z"/><path class="cls-1" d="M680.68,116.12Q664.15,99.6,630.11,99.6a129.51,129.51,0,0,0-36.36,5.61q-18.69,5.49-32,13.78l22.66,22.67a132.51,132.51,0,0,1,15.8-6.2A88.79,88.79,0,0,1,627.13,131q16.53,0,23.63,7.27t7.11,23.8v7.6h-8.26q-36,0-56.52,4.63T563.5,189.17q-9.09,10.25-9.09,28.1a45.9,45.9,0,0,0,7.6,25.78,52.21,52.21,0,0,0,20.83,18.18,64.81,64.81,0,0,0,29.42,6.61q15.87,0,27.93-7.27a43.13,43.13,0,0,0,17.68-20.16V265.2h39.34V167Q697.21,132.65,680.68,116.12Zm-22.81,82.31q0,17.52-10.41,28.59t-26.94,11.07q-11.24,0-18.51-6.77A22.66,22.66,0,0,1,594.74,214q0-8.58,5.29-13.55t17.52-6.94q12.23-2,34.37-2h6Z"/><path class="cls-1" d="M1172,216.66a105.94,105.94,0,0,1-21.31,11,94,94,0,0,1-33.06,5.79q-33.72,0-52.06-21.82t-18.35-63.13q0-41,18.35-62.81t52.06-21.82a94.18,94.18,0,0,1,33.06,5.79,105.75,105.75,0,0,1,21.36,11.06l24-24q-14.14-13-34.79-20.27A133.33,133.33,0,0,0,1117,29.19q-34.38,0-60,14.71a98.41,98.41,0,0,0-39.33,41.65q-13.71,26.94-13.72,63t13.72,63.13A98.13,98.13,0,0,0,1057,253.46q25.62,14.71,60,14.71a133.33,133.33,0,0,0,44.29-7.27q20.61-7.2,34.75-20.23Z"/><path class="cls-1" d="M1848.18,225.84a76.35,76.35,0,0,1-38.62,10.27q-21.49,0-33-10.91T1763,191.82H1873V180.25q0-37.68-19.33-59.17T1801,99.6q-22.82,0-40.82,10.57a72.18,72.18,0,0,0-27.94,29.75q-9.92,19.17-9.91,44,0,39,23,61.49t62.64,22.47a108.43,108.43,0,0,0,34.21-5.62q16.74-5.52,27.88-14.56Zm-72.83-86.58q10.08-10.57,26.61-10.58t25.78,10.42q9.26,10.41,9.92,30.57H1763Q1765.26,149.84,1775.35,139.26Z"/><path class="cls-1" d="M1993.2,231.15a63.74,63.74,0,0,1-22.64,4.3q-21.49,0-33.39-13.39t-11.9-38.18q0-25.11,11.9-38.5T1970.56,132a64,64,0,0,1,22.64,4.3,74.72,74.72,0,0,1,11.12,5.29l22.11-22.11q-9.86-9-26-14.42a105.31,105.31,0,0,0-33.55-5.45q-25.12,0-44.29,10.57a73,73,0,0,0-29.58,29.92q-10.42,19.33-10.42,44.46t9.92,44a69.31,69.31,0,0,0,28.59,29.09q18.67,10.25,44.13,10.24a108.83,108.83,0,0,0,34.37-5.45q16.06-5.29,26.5-14.5l-22-21.95A74.33,74.33,0,0,1,1993.2,231.15Z"/><path class="cls-1" d="M2146.12,236.13q-6.27.63-12.11.64-30.09,0-30.08-32.39V134.63h42.19V103.56h-42.19V55.3h-41.32v48.26h-31.07v31.07h31.07V205q0,31.07,16.2,46.77t50.24,15.7c5.19,0,10.89-.29,17.07-.89Z"/></svg>